<?xml version="1.0" encoding="utf-8"?>
<!-- Generator: Adobe Illustrator 18.0.0, SVG Export Plug-In . SVG Version: 6.00 Build 0)  -->
<!DOCTYPE svg PUBLIC "-//W3C//DTD SVG 1.1//EN" "http://www.w3.org/Graphics/SVG/1.1/DTD/svg11.dtd">
<svg version="1.1"
	 id="svg2" xmlns:sodipodi="http://sodipodi.sourceforge.net/DTD/sodipodi-0.dtd" xmlns:svg="http://www.w3.org/2000/svg" xmlns:inkscape="http://www.inkscape.org/namespaces/inkscape" xmlns:rdf="http://www.w3.org/1999/02/22-rdf-syntax-ns#" inkscape:version="0.48.0 r9654" sodipodi:docname="ace_of_spades2.svg" inkscape:export-filename="/home/byron/art/cards/final/ace_of_spades2.png" inkscape:export-xdpi="215.44792" inkscape:export-ydpi="215.44792" xmlns:dc="http://purl.org/dc/elements/1.1/" xmlns:cc="http://creativecommons.org/ns#"
	 xmlns="http://www.w3.org/2000/svg" xmlns:xlink="http://www.w3.org/1999/xlink" x="0px" y="0px"
	 viewBox="767.8 441.2 749.7 902.4" enable-background="new 767.8 441.2 749.7 902.4" xml:space="preserve">
<g id="g3886" transform="matrix(0.19861112,0,0,0.19861112,10.08352,15.428943)">
	<g id="layer1-7-1" transform="matrix(31.754082,0,0,29.033123,371.73772,526.70948)">
		
			<radialGradient id="sl-5_1_" cx="-44.6246" cy="262.3417" r="7.9997" gradientTransform="matrix(-467.3439 -6.9319 7.5739 -610.9742 -22676.0859 160072.4844)" gradientUnits="userSpaceOnUse">
			<stop  offset="0" style="stop-color:#555"/>
			<stop  offset="1" style="stop-color:#555;stop-opacity:0.6489"/>
		</radialGradient>
		<path id="sl-5" sodipodi:nodetypes="cccccccccc" inkscape:connector-curvature="0" fill="url(#sl-5_1_)" d="M227.2,156.6
			c-2.2-30.4-57.8-86.8-59.3-100.9c-1.5,14.1-57.1,70.5-59.3,100.9c-1.5,21.5,12.6,30.4,25.2,30.4c13.3,0,25.2-20.8,28.9-24.5
			c1.5,5.2-11.9,49.7-16.3,49.7h43c-4.4,0-17.8-44.5-16.3-49.7c3.7,3.7,13.3,24.5,28.9,24.5C214.6,187,228.7,178.1,227.2,156.6z"/>
	</g>
</g>
</svg>
