<?xml version="1.0" standalone="no"?>
<!DOCTYPE svg PUBLIC "-//W3C//DTD SVG 20010904//EN"
 "http://www.w3.org/TR/2001/REC-SVG-20010904/DTD/svg10.dtd">
<svg version="1.0" xmlns="http://www.w3.org/2000/svg"
 width="150.000000pt" height="150.000000pt" viewBox="0 0 150.000000 150.000000"
 preserveAspectRatio="xMidYMid meet">

<g transform="translate(0.000000,150.000000) scale(0.100000,-0.100000)"
fill="#000000" stroke="none">
<path d="M348 1176 c-112 -58 -215 -116 -230 -131 -30 -30 -43 -81 -29 -118 5
-13 43 -87 84 -163 41 -77 107 -202 147 -279 97 -187 107 -203 140 -220 43
-22 80 -18 151 17 35 17 77 31 94 31 16 -1 102 -25 190 -52 262 -84 277 -77
345 140 23 74 71 226 107 339 89 281 83 308 -76 360 -66 21 -84 32 -103 60
-29 43 -72 59 -164 59 -57 1 -74 5 -88 20 -37 41 -71 46 -170 26 -85 -16 -94
-16 -123 -1 -18 9 -41 16 -52 16 -12 0 -112 -47 -223 -104z m430 -30 c4 -5
-125 -428 -167 -546 l-20 -55 0 65 c0 36 4 166 9 289 12 270 11 266 109 257
35 -3 66 -8 69 -10z m-252 -188 c-13 -356 -19 -453 -28 -433 -14 34 -118 512
-118 543 0 23 6 32 28 41 24 10 92 27 116 30 5 1 6 -75 2 -181z m-226 97 c0
-2 29 -136 65 -297 36 -160 64 -298 63 -304 -5 -21 -269 496 -266 520 3 24
138 104 138 81z m778 -178 c11 -24 32 -59 49 -78 71 -82 81 -129 40 -190 -45
-66 -114 -74 -161 -18 -14 16 -28 29 -32 29 -7 0 -1 -44 12 -87 6 -23 6 -23
-41 -9 -26 8 -49 17 -52 20 -3 2 12 21 32 41 41 42 41 51 0 35 -38 -14 -77 -5
-106 26 -19 21 -24 36 -24 81 0 49 3 58 32 83 18 16 52 34 75 39 32 8 118 46
155 70 1 0 11 -18 21 -42z"/>
</g>
</svg>
