<svg xmlns="http://www.w3.org/2000/svg" width="200" height="200" viewBox="0 0 200 200" version="1.1"><path d="M 50.695 40.839 C 15.978 58.377, 11 62.258, 11 71.788 C 11 76.641, 11.254 77.161, 40.141 131.354 C 47.720 145.574, 55.124 158.785, 56.593 160.711 C 60.002 165.180, 65.175 167.391, 70.471 166.640 C 72.687 166.326, 78.248 164.479, 82.829 162.535 C 87.410 160.591, 92.232 159, 93.544 159 C 94.856 159, 105.282 161.720, 116.714 165.045 C 128.708 168.533, 140.470 171.336, 144.522 171.672 C 151.168 172.223, 151.724 172.103, 154.887 169.441 C 159.434 165.616, 160.522 162.819, 173.661 121.185 C 189.286 71.672, 190.067 66.941, 183.718 60.268 C 180.944 57.353, 178.252 56.072, 163.580 50.688 C 161.974 50.099, 158.335 47.292, 155.494 44.450 C 149.802 38.758, 148.419 38.286, 133.852 37.054 C 126.333 36.418, 124.642 35.910, 120.905 33.161 C 117.185 30.426, 115.791 30.003, 110.553 30.020 C 107.224 30.031, 100.810 30.640, 96.301 31.373 C 88.810 32.592, 87.648 32.547, 82.839 30.853 C 79.945 29.834, 76.801 29, 75.853 29 C 74.905 29, 63.584 34.327, 50.695 40.839 M 85.313 46.711 C 82.056 48.986, 80.867 61.058, 79.570 105 C 79.032 123.244, 79.096 124.275, 80.558 121 C 84.242 112.754, 103.723 48.389, 102.811 47.477 C 101.870 46.537, 86.524 45.865, 85.313 46.711 M 61.013 50.606 C 57.996 51.417, 54.463 52.777, 53.163 53.629 C 51.044 55.017, 50.869 55.660, 51.471 59.839 C 53.023 70.608, 62.669 114.700, 65.836 125.500 C 66.594 128.086, 66.803 127.465, 67.353 121 C 68.430 108.354, 70 72.374, 70 60.365 C 70 47.453, 70.545 48.045, 61.013 50.606 M 33.367 61.867 C 25.842 66.016, 22 68.950, 22 70.547 C 22 72.068, 50.207 128.216, 53.877 134 L 56.097 137.500 55.454 133.500 C 55.101 131.300, 52.129 117.125, 48.852 102 C 45.574 86.875, 42.146 71.013, 41.234 66.750 C 40.322 62.487, 39.334 59.008, 39.038 59.018 C 38.742 59.028, 36.190 60.310, 33.367 61.867 M 138.260 79.530 C 137.109 80.337, 131.190 82.984, 125.107 85.414 C 111.773 90.739, 108.508 92.930, 106.973 97.582 C 104.569 104.868, 107.552 113.121, 113.659 116.077 C 117.674 118.021, 118.542 118.108, 122.582 116.977 C 125.043 116.288, 127.325 115.992, 127.652 116.319 C 127.979 116.646, 126.391 119.021, 124.123 121.597 C 121.855 124.174, 120 126.579, 120 126.943 C 120 127.896, 129.983 131.351, 130.691 130.643 C 131.017 130.316, 130.706 127.327, 130 124 C 129.294 120.673, 129.013 117.653, 129.376 117.290 C 129.740 116.927, 131.716 118.261, 133.768 120.255 C 141.959 128.213, 149.901 127.144, 155.665 117.308 C 159.243 111.203, 158.577 105.737, 153.364 98.436 C 151.239 95.459, 147.442 89.658, 144.926 85.544 C 140.558 78.400, 140.259 78.130, 138.260 79.530" stroke="none" fill="#fffcfc" fill-rule="evenodd"/><path d="" stroke="none" fill="#fcfcfc" fill-rule="evenodd"/></svg>